<svg width="90" height="90" viewBox="0 0 90 90" fill="none" xmlns="http://www.w3.org/2000/svg">
<rect width="90" height="90" rx="8" fill="#5AB48E"/>
<path d="M40.7355 51.8C40.6466 51.8 40.5134 51.7511 40.3357 51.6533L36.0711 47.6933C35.8935 47.4978 35.8046 47.3022 35.8046 47.1067C35.8046 46.9111 35.8935 46.7156 36.0711 46.52L40.3357 42.56C40.5134 42.4622 40.6911 42.4133 40.8687 42.4133C41.0464 42.4133 41.1797 42.4867 41.2685 42.6333C41.3574 42.78 41.4018 42.9511 41.4018 43.1467C41.4018 43.3422 41.3574 43.4889 41.2685 43.5867L37.5371 47.1067L41.2685 50.6267C41.3574 50.7245 41.4018 50.8711 41.4018 51.0667C41.4018 51.2622 41.3574 51.4333 41.2685 51.58C41.1797 51.7267 41.002 51.8 40.7355 51.8ZM49.2646 51.8C48.998 51.8 48.8203 51.7267 48.7315 51.58C48.6426 51.4333 48.5982 51.2622 48.5982 51.0667C48.5982 50.8711 48.6426 50.7245 48.7315 50.6267L52.463 47.1067L48.7315 43.5867C48.6426 43.4889 48.5982 43.3422 48.5982 43.1467C48.5982 42.9511 48.6426 42.78 48.7315 42.6333C48.8203 42.4867 48.9536 42.4133 49.1313 42.4133C49.309 42.4133 49.4867 42.4622 49.6644 42.56L53.9289 46.52C54.1066 46.7156 54.1954 46.9111 54.1954 47.1067C54.1954 47.3022 54.1066 47.4978 53.9289 47.6933L49.6644 51.6533C49.4867 51.7511 49.3534 51.8 49.2646 51.8ZM43.5341 54.88C43.4452 54.88 43.3564 54.8556 43.2676 54.8067C43.1787 54.7578 43.0676 54.66 42.9344 54.5133C42.8011 54.3667 42.7789 54.1956 42.8677 54L45.5331 40.0667C45.5331 39.8711 45.6219 39.7245 45.7996 39.6267C45.9773 39.5289 46.155 39.48 46.3327 39.48C46.5104 39.48 46.6436 39.5778 46.7325 39.7733C46.8213 39.9689 46.8213 40.1645 46.7325 40.36L44.0672 54.2933C44.0672 54.6845 43.8895 54.88 43.5341 54.88ZM60.5922 62.36H29.4078C28.2528 62.36 27.2311 61.8956 26.3427 60.9667C25.4542 60.0378 25.01 58.8889 25.01 57.52V28.48C25.01 27.1111 25.4542 25.9622 26.3427 25.0333C27.2311 24.1045 28.2528 23.64 29.4078 23.64H60.5922C61.7472 23.64 62.7689 24.1045 63.6574 25.0333C64.5458 25.9622 64.99 27.1111 64.99 28.48V57.52C64.99 58.8889 64.5458 60.0378 63.6574 60.9667C62.7689 61.8956 61.7472 62.36 60.5922 62.36ZM29.4078 25.1067C28.6082 25.1067 27.8975 25.4245 27.2755 26.06C26.6536 26.6956 26.3427 27.5022 26.3427 28.48V57.52C26.3427 58.4978 26.6536 59.3045 27.2755 59.94C27.8975 60.5756 28.6082 60.8933 29.4078 60.8933H60.5922C61.3918 60.8933 62.1026 60.5756 62.7245 59.94C63.3464 59.3045 63.6574 58.4978 63.6574 57.52V28.48C63.6574 27.5022 63.3464 26.6956 62.7245 26.06C62.1026 25.4245 61.3918 25.1067 60.5922 25.1067H29.4078ZM64.3237 35.2267H25.6763C25.4987 35.2267 25.3432 35.1533 25.2099 35.0067C25.0766 34.86 25.01 34.6889 25.01 34.4933C25.01 34.2978 25.0766 34.1267 25.2099 33.98C25.3432 33.8333 25.4987 33.76 25.6763 33.76H64.3237C64.5014 33.76 64.6569 33.8333 64.7901 33.98C64.9234 34.1267 64.99 34.2978 64.99 34.4933C64.99 34.6889 64.9234 34.86 64.7901 35.0067C64.6569 35.1533 64.5014 35.2267 64.3237 35.2267ZM36.3377 31.7067C35.7158 31.7067 35.2049 31.4867 34.8051 31.0467C34.4053 30.6067 34.2054 30.0689 34.2054 29.4333C34.2054 28.7978 34.4053 28.26 34.8051 27.82C35.2049 27.38 35.6936 27.16 36.271 27.16C36.8485 27.16 37.3372 27.38 37.737 27.82C38.1368 28.26 38.3367 28.7978 38.3367 29.4333C38.3367 30.0689 38.1368 30.6067 37.737 31.0467C37.3372 31.4867 36.8707 31.7067 36.3377 31.7067ZM36.3377 28.6267C36.0711 28.6267 35.8712 28.7 35.738 28.8467C35.6047 28.9933 35.5381 29.1889 35.5381 29.4333C35.5381 29.6778 35.6047 29.8733 35.738 30.02C35.8712 30.1667 36.0489 30.24 36.271 30.24C36.4932 30.24 36.6708 30.1667 36.8041 30.02C36.9374 29.8733 37.004 29.6778 37.004 29.4333C37.004 29.1889 36.9374 28.9933 36.8041 28.8467C36.6708 28.7 36.5154 28.6267 36.3377 28.6267ZM29.8076 31.7067C29.2745 31.7067 28.8081 31.4867 28.4083 31.0467C28.0085 30.6067 27.8086 30.0689 27.8086 29.4333C27.8086 28.7978 28.0085 28.26 28.4083 27.82C28.8081 27.38 29.2968 27.16 29.8742 27.16C30.4517 27.16 30.9404 27.38 31.3402 27.82C31.74 28.26 31.9399 28.7978 31.9399 29.4333C31.9399 30.0689 31.74 30.6067 31.3402 31.0467C30.9404 31.4867 30.4295 31.7067 29.8076 31.7067ZM29.8076 28.6267C29.6299 28.6267 29.4744 28.7 29.3412 28.8467C29.2079 28.9933 29.1413 29.1889 29.1413 29.4333C29.1413 29.6778 29.2079 29.8733 29.3412 30.02C29.4744 30.1667 29.6521 30.24 29.8742 30.24C30.0964 30.24 30.274 30.1667 30.4073 30.02C30.5406 29.8733 30.6072 29.6778 30.6072 29.4333C30.6072 29.1889 30.5406 28.9933 30.4073 28.8467C30.274 28.7 30.0741 28.6267 29.8076 28.6267ZM42.7345 31.7067C42.1126 31.7067 41.6017 31.4867 41.2019 31.0467C40.8021 30.6067 40.6022 30.0689 40.6022 29.4333C40.6022 28.7978 40.8021 28.26 41.2019 27.82C41.6017 27.38 42.0904 27.16 42.6678 27.16C43.2453 27.16 43.734 27.38 44.1338 27.82C44.5336 28.26 44.7335 28.7978 44.7335 29.4333C44.7335 30.0689 44.5336 30.6067 44.1338 31.0467C43.734 31.4867 43.2676 31.7067 42.7345 31.7067ZM42.7345 28.6267C42.4679 28.6267 42.268 28.7 42.1348 28.8467C42.0015 28.9933 41.9349 29.1889 41.9349 29.4333C41.9349 29.6778 42.0015 29.8978 42.1348 30.0933C42.268 30.2889 42.4457 30.3867 42.6678 30.3867C42.89 30.3867 43.0899 30.2889 43.2676 30.0933C43.4452 29.8978 43.5341 29.6778 43.5341 29.4333C43.5341 29.1889 43.4452 28.9933 43.2676 28.8467C43.0899 28.7 42.9122 28.6267 42.7345 28.6267Z" fill="white"/>
</svg>
